<mxfile host="app.diagrams.net" modified="2023-10-10T21:31:41.972Z" agent="Mozilla/5.0 (Windows NT 10.0; Win64; x64) AppleWebKit/537.36 (KHTML, like Gecko) Chrome/117.0.0.0 Safari/537.36" etag="Fraky8yXu7l59Ha3ibD3" version="22.0.4" type="google">
  <diagram name="Page-1" id="YhpZWK5rZaFt3dcPmeIu">
    <mxGraphModel grid="1" page="1" gridSize="10" guides="1" tooltips="1" connect="1" arrows="1" fold="1" pageScale="1" pageWidth="1169" pageHeight="827" math="0" shadow="0">
      <root>
        <mxCell id="0" />
        <mxCell id="1" parent="0" />
        <mxCell id="s6-SCaLtRSMU_NXk_AOt-10" style="edgeStyle=orthogonalEdgeStyle;rounded=0;orthogonalLoop=1;jettySize=auto;html=1;entryX=0.5;entryY=0;entryDx=0;entryDy=0;" edge="1" parent="1" source="s6-SCaLtRSMU_NXk_AOt-1" target="s6-SCaLtRSMU_NXk_AOt-6">
          <mxGeometry relative="1" as="geometry" />
        </mxCell>
        <mxCell id="s6-SCaLtRSMU_NXk_AOt-1" value="0" style="ellipse;whiteSpace=wrap;html=1;aspect=fixed;" vertex="1" parent="1">
          <mxGeometry x="580" y="270" width="30" height="30" as="geometry" />
        </mxCell>
        <mxCell id="s6-SCaLtRSMU_NXk_AOt-2" value="1" style="ellipse;whiteSpace=wrap;html=1;aspect=fixed;" vertex="1" parent="1">
          <mxGeometry x="700" y="270" width="30" height="30" as="geometry" />
        </mxCell>
        <mxCell id="s6-SCaLtRSMU_NXk_AOt-3" value="2" style="ellipse;whiteSpace=wrap;html=1;aspect=fixed;" vertex="1" parent="1">
          <mxGeometry x="820" y="270" width="30" height="30" as="geometry" />
        </mxCell>
        <mxCell id="s6-SCaLtRSMU_NXk_AOt-14" style="edgeStyle=orthogonalEdgeStyle;rounded=0;orthogonalLoop=1;jettySize=auto;html=1;entryX=1;entryY=0.5;entryDx=0;entryDy=0;" edge="1" parent="1" source="s6-SCaLtRSMU_NXk_AOt-4" target="s6-SCaLtRSMU_NXk_AOt-3">
          <mxGeometry relative="1" as="geometry" />
        </mxCell>
        <mxCell id="s6-SCaLtRSMU_NXk_AOt-15" style="edgeStyle=orthogonalEdgeStyle;rounded=0;orthogonalLoop=1;jettySize=auto;html=1;entryX=0.5;entryY=1;entryDx=0;entryDy=0;" edge="1" parent="1" source="s6-SCaLtRSMU_NXk_AOt-4" target="s6-SCaLtRSMU_NXk_AOt-7">
          <mxGeometry relative="1" as="geometry">
            <Array as="points">
              <mxPoint x="990" y="285" />
              <mxPoint x="990" y="490" />
              <mxPoint x="715" y="490" />
            </Array>
          </mxGeometry>
        </mxCell>
        <mxCell id="s6-SCaLtRSMU_NXk_AOt-4" value="3" style="ellipse;whiteSpace=wrap;html=1;aspect=fixed;" vertex="1" parent="1">
          <mxGeometry x="940" y="270" width="30" height="30" as="geometry" />
        </mxCell>
        <mxCell id="s6-SCaLtRSMU_NXk_AOt-26" style="edgeStyle=orthogonalEdgeStyle;rounded=0;orthogonalLoop=1;jettySize=auto;html=1;entryX=0.5;entryY=0;entryDx=0;entryDy=0;" edge="1" parent="1" source="s6-SCaLtRSMU_NXk_AOt-5" target="s6-SCaLtRSMU_NXk_AOt-9">
          <mxGeometry relative="1" as="geometry" />
        </mxCell>
        <mxCell id="s6-SCaLtRSMU_NXk_AOt-5" value="4" style="ellipse;whiteSpace=wrap;html=1;aspect=fixed;" vertex="1" parent="1">
          <mxGeometry x="1030" y="340" width="30" height="30" as="geometry" />
        </mxCell>
        <mxCell id="s6-SCaLtRSMU_NXk_AOt-12" style="edgeStyle=orthogonalEdgeStyle;rounded=0;orthogonalLoop=1;jettySize=auto;html=1;entryX=0.5;entryY=1;entryDx=0;entryDy=0;" edge="1" parent="1" source="s6-SCaLtRSMU_NXk_AOt-6" target="s6-SCaLtRSMU_NXk_AOt-8">
          <mxGeometry relative="1" as="geometry">
            <Array as="points">
              <mxPoint x="595" y="464" />
              <mxPoint x="835" y="464" />
            </Array>
          </mxGeometry>
        </mxCell>
        <mxCell id="s6-SCaLtRSMU_NXk_AOt-13" style="edgeStyle=orthogonalEdgeStyle;rounded=0;orthogonalLoop=1;jettySize=auto;html=1;entryX=0.5;entryY=0;entryDx=0;entryDy=0;" edge="1" parent="1" source="s6-SCaLtRSMU_NXk_AOt-6" target="s6-SCaLtRSMU_NXk_AOt-4">
          <mxGeometry relative="1" as="geometry">
            <Array as="points">
              <mxPoint x="550" y="429" />
              <mxPoint x="550" y="250" />
              <mxPoint x="955" y="250" />
            </Array>
          </mxGeometry>
        </mxCell>
        <mxCell id="s6-SCaLtRSMU_NXk_AOt-27" style="edgeStyle=orthogonalEdgeStyle;rounded=0;orthogonalLoop=1;jettySize=auto;html=1;entryX=0;entryY=0.5;entryDx=0;entryDy=0;" edge="1" parent="1" source="s6-SCaLtRSMU_NXk_AOt-6" target="s6-SCaLtRSMU_NXk_AOt-2">
          <mxGeometry relative="1" as="geometry" />
        </mxCell>
        <mxCell id="s6-SCaLtRSMU_NXk_AOt-6" value="5" style="ellipse;whiteSpace=wrap;html=1;aspect=fixed;" vertex="1" parent="1">
          <mxGeometry x="580" y="414" width="30" height="30" as="geometry" />
        </mxCell>
        <mxCell id="s6-SCaLtRSMU_NXk_AOt-7" value="6" style="ellipse;whiteSpace=wrap;html=1;aspect=fixed;" vertex="1" parent="1">
          <mxGeometry x="700" y="414" width="30" height="30" as="geometry" />
        </mxCell>
        <mxCell id="s6-SCaLtRSMU_NXk_AOt-21" style="edgeStyle=orthogonalEdgeStyle;rounded=0;orthogonalLoop=1;jettySize=auto;html=1;entryX=0;entryY=0.5;entryDx=0;entryDy=0;" edge="1" parent="1" source="s6-SCaLtRSMU_NXk_AOt-8" target="s6-SCaLtRSMU_NXk_AOt-9">
          <mxGeometry relative="1" as="geometry" />
        </mxCell>
        <mxCell id="s6-SCaLtRSMU_NXk_AOt-25" style="edgeStyle=orthogonalEdgeStyle;rounded=0;orthogonalLoop=1;jettySize=auto;html=1;entryX=0.5;entryY=1;entryDx=0;entryDy=0;" edge="1" parent="1" source="s6-SCaLtRSMU_NXk_AOt-8" target="s6-SCaLtRSMU_NXk_AOt-2">
          <mxGeometry relative="1" as="geometry">
            <Array as="points">
              <mxPoint x="835" y="330" />
              <mxPoint x="715" y="330" />
            </Array>
          </mxGeometry>
        </mxCell>
        <mxCell id="s6-SCaLtRSMU_NXk_AOt-8" value="7" style="ellipse;whiteSpace=wrap;html=1;aspect=fixed;" vertex="1" parent="1">
          <mxGeometry x="820" y="414" width="30" height="30" as="geometry" />
        </mxCell>
        <mxCell id="s6-SCaLtRSMU_NXk_AOt-9" value="8" style="ellipse;whiteSpace=wrap;html=1;aspect=fixed;" vertex="1" parent="1">
          <mxGeometry x="940" y="414" width="30" height="30" as="geometry" />
        </mxCell>
        <mxCell id="s6-SCaLtRSMU_NXk_AOt-19" value="" style="endArrow=classic;html=1;rounded=0;exitX=1;exitY=0;exitDx=0;exitDy=0;entryX=0;entryY=1;entryDx=0;entryDy=0;" edge="1" parent="1" source="s6-SCaLtRSMU_NXk_AOt-8" target="s6-SCaLtRSMU_NXk_AOt-4">
          <mxGeometry width="50" height="50" relative="1" as="geometry">
            <mxPoint x="690" y="400" as="sourcePoint" />
            <mxPoint x="740" y="350" as="targetPoint" />
          </mxGeometry>
        </mxCell>
        <mxCell id="s6-SCaLtRSMU_NXk_AOt-20" value="" style="endArrow=classic;html=1;rounded=0;exitX=1;exitY=1;exitDx=0;exitDy=0;entryX=0;entryY=0;entryDx=0;entryDy=0;" edge="1" parent="1" source="s6-SCaLtRSMU_NXk_AOt-1" target="s6-SCaLtRSMU_NXk_AOt-8">
          <mxGeometry width="50" height="50" relative="1" as="geometry">
            <mxPoint x="690" y="400" as="sourcePoint" />
            <mxPoint x="740" y="350" as="targetPoint" />
          </mxGeometry>
        </mxCell>
        <mxCell id="s6-SCaLtRSMU_NXk_AOt-24" value="" style="endArrow=classic;html=1;rounded=0;exitX=1;exitY=1;exitDx=0;exitDy=0;entryX=0.5;entryY=1;entryDx=0;entryDy=0;" edge="1" parent="1" source="s6-SCaLtRSMU_NXk_AOt-8" target="s6-SCaLtRSMU_NXk_AOt-5">
          <mxGeometry width="50" height="50" relative="1" as="geometry">
            <mxPoint x="690" y="400" as="sourcePoint" />
            <mxPoint x="740" y="350" as="targetPoint" />
            <Array as="points">
              <mxPoint x="870" y="470" />
              <mxPoint x="1045" y="470" />
            </Array>
          </mxGeometry>
        </mxCell>
      </root>
    </mxGraphModel>
  </diagram>
</mxfile>
